#!OML:ASF F:\VICON\USERDATA\INSTALL\rory3\rory3.ASF
:FULLY-SPECIFIED
:DEGREES
241
root -0.120933 17.9353 -0.413949 2.85619 -10.4744 2.36326
lowerback -1.30031 -1.74495 -4.49387
upperback -1.6539 -2.28942 3.15647
thorax -0.670604 -1.09096 5.77254
lowerneck -32.5188 -1.00391 -8.67007
upperneck 1.50063 1.14302 7.06332
head 5.1962 1.05658 3.86889
rclavicle 5.36408e-015 2.54444e-014
rhumerus -32.6952 -1.09829 -79.7218
rradius 29.7967
rwrist 20.3357
rhand -17.9664 8.86708
rfingers 7.12502
rthumb 8.30272 -20.9498
lclavicle 5.36408e-015 2.54444e-014
lhumerus 56.6431 9.23971 49.162
lradius 99.2722
lwrist -17.5172
lhand -47.1975 21.1416
lfingers 7.12502
lthumb -19.8972 50.143
rfemur -7.87064 8.73635 13.9007
rtibia 26.2408
rfoot -18.1026 -2.7228
rtoes 3.91621
lfemur 3.00508 -2.03389 -23.1089
ltibia 8.83547
lfoot -10.2495 6.36323
ltoes -12.5122
242
root -0.122124 17.9347 -0.414576 2.8337 -10.4648 2.40089
lowerback -1.23858 -1.75773 -4.53945
upperback -1.66605 -2.30846 3.15042
thorax -0.713835 -1.09852 5.79427
lowerneck -32.5993 -0.970654 -8.63997
upperneck 1.5516 1.18491 7.01041
head 5.21955 1.07302 3.85305
rclavicle 3.19112e-014 -1.19271e-014
rhumerus -32.7541 -1.06223 -79.7246
rradius 29.8308
rwrist 20.3233
rhand -17.9166 8.76305
rfingers 7.12502
rthumb 8.35082 -21.0519
lclavicle 3.19112e-014 -1.19271e-014
lhumerus 56.6321 9.32763 49.1393
lradius 99.2608
lwrist -17.6543
lhand -47.1247 21.4367
lfingers 7.12502
lthumb -19.8272 50.4454
rfemur -7.85725 8.73328 13.8734
rtibia 26.2465
rfoot -18.0625 -2.77614
rtoes 3.63386
lfemur 3.03987 -2.04415 -23.1427
ltibia 8.79492
lfoot -10.2245 6.35575
ltoes -12.3562
243
root -0.1245 17.9352 -0.413617 2.81131 -10.4797 2.39853
lowerback -1.18905 -1.7479 -4.55734
upperback -1.68028 -2.29702 3.14272
thorax -0.757512 -1.09096 5.79861
lowerneck -32.5956 -0.958204 -8.61409
upperneck 1.50898 1.19525 6.97817
head 5.20417 1.07565 3.83865
rclavicle -7.01337e-015 1.66979e-014
rhumerus -32.7772 -1.08741 -79.7175
rradius 29.7455
rwrist 20.3153
rhand -17.9018 8.64287
rfingers 7.12502
rthumb 8.36509 -21.1715
lclavicle -7.01337e-015 1.66979e-014
lhumerus 56.6147 9.34473 49.0566
lradius 99.2689
lwrist -17.4667
lhand -47.7849 20.6584
lfingers 7.12502
lthumb -20.4618 49.6002
rfemur -7.82547 8.82275 13.8913
rtibia 26.2566
rfoot -18.1024 -2.82736
rtoes 3.63188
lfemur 3.11164 -2.02785 -23.132
ltibia 8.76187
lfoot -10.2091 6.3318
ltoes -12.3119
244
root -0.12718 17.9365 -0.413508 2.79909 -10.4699 2.39939
lowerback -1.16504 -1.74222 -4.57985
upperback -1.69285 -2.2902 3.14589
thorax -0.783968 -1.0862 5.81601
lowerneck -32.5327 -0.991131 -8.71128
upperneck 1.41469 1.17987 7.04767
head 5.16602 1.07328 3.87362
rclavicle -4.30617e-014 -3.97569e-015
rhumerus -32.7899 -1.1876 -79.6452
rradius 29.6589
rwrist 20.3979
rhand -17.7046 8.40854
rfingers 7.12502
rthumb 8.55544 -21.3981
lclavicle -4.30617e-014 -3.97569e-015
lhumerus 56.5931 9.3604 48.946
lradius 99.2662
lwrist -17.166
lhand -48.4251 19.783
lfingers 7.12502
lthumb -21.0769 48.6575
rfemur -7.80914 8.85585 13.9079
rtibia 26.2753
rfoot -18.1233 -2.87221
rtoes 3.63704
lfemur 3.17215 -2.03714 -23.1175
ltibia 8.71847
lfoot -10.2113 6.29059
ltoes -12.5642
245
root -0.12835 17.9349 -0.413885 2.80904 -10.4571 2.40395
lowerback -1.18329 -1.74347 -4.57494
upperback -1.69804 -2.29129 3.13012
thorax -0.779725 -1.08685 5.79612
lowerneck -32.5157 -1.00947 -8.73698
upperneck 1.39963 1.16026 7.09319
head 5.16062 1.06754 3.89037
rclavicle 5.04913e-014 -1.59028e-015
rhumerus -32.8291 -1.19218 -79.6391
rradius 29.6668
rwrist 20.4584
rhand -17.6491 8.1978
rfingers 7.12502
rthumb 8.60895 -21.6067
lclavicle 5.04913e-014 -1.59028e-015
lhumerus 56.6083 9.42148 48.9044
lradius 99.305
lwrist -17.1744
lhand -48.1159 19.8572
lfingers 7.12502
lthumb -20.7798 48.7646
rfemur -7.82481 8.81519 13.9088
rtibia 26.287
rfoot -18.1297 -2.85828
rtoes 3.52652
lfemur 3.1473 -2.05051 -23.114
ltibia 8.68575
lfoot -10.1603 6.32357
ltoes -12.6595
246
root -0.129023 17.934 -0.411898 2.81532 -10.4602 2.40337
lowerback -1.18792 -1.74023 -4.52907
upperback -1.71323 -2.28709 3.09286
thorax -0.796463 -1.08445 5.73105
lowerneck -32.6143 -1.00117 -8.70681
upperneck 1.52422 1.15675 7.16179
head 5.21509 1.07292 3.9118
rclavicle -1.881e-014 -1.03368e-014
rhumerus -32.9153 -1.12133 -79.6856
rradius 29.6999
rwrist 20.4272
rhand -17.6857 8.27625
rfingers 7.12502
rthumb 8.57364 -21.5297
lclavicle -1.881e-014 -1.03368e-014
lhumerus 56.6706 9.46637 48.9197
lradius 99.3545
lwrist -17.2522
lhand -47.4974 20.0526
lfingers 7.12502
lthumb -20.1854 49.0239
rfemur -7.82813 8.7885 13.9067
rtibia 26.3015
rfoot -18.1393 -2.84045
rtoes 3.58081
lfemur 3.14503 -2.04708 -23.1176
ltibia 8.64566
lfoot -10.1444 6.34344
ltoes -12.6453
247
root -0.129834 17.9354 -0.410103 2.81607 -10.4625 2.39877
lowerback -1.13459 -1.74466 -4.52389
upperback -1.75436 -2.29498 3.09217
thorax -0.868047 -1.08535 5.73
lowerneck -32.9129 -0.97124 -8.61267
upperneck 1.90845 1.17831 7.10982
head 5.37808 1.08107 3.89142
rclavicle 6.20084e-014 -1.43125e-014
rhumerus -33.0401 -0.970649 -79.7002
rradius 29.7522
rwrist 20.4197
rhand -17.7045 8.40478
rfingers 7.12502
rthumb 8.5555 -21.4019
lclavicle 6.20084e-014 -1.43125e-014
lhumerus 56.6492 9.49952 48.9395
lradius 99.4218
lwrist -17.3023
lhand -47.1929 20.1193
lfingers 7.12502
lthumb -19.8928 49.1212
rfemur -7.8307 8.74738 13.9144
rtibia 26.3167
rfoot -18.1115 -2.83093
rtoes 3.58572
lfemur 3.1986 -2.04388 -23.1182
ltibia 8.61505
lfoot -10.1355 6.33031
ltoes -12.9847
248
root -0.130459 17.9355 -0.410104 2.7976 -10.4469 2.4337
lowerback -1.0604 -1.74338 -4.55262
upperback -1.79947 -2.29598 3.07416
thorax -0.955827 -1.08188 5.73108
lowerneck -33.1887 -0.917675 -8.42135
upperneck 2.32955 1.20834 6.89761
head 5.55028 1.07897 3.80212
rclavicle 9.36773e-015 3.97569e-015
rhumerus -33.1591 -1.00602 -79.668
rradius 29.7732
rwrist 20.4626
rhand -17.7801 8.50594
rfingers 7.12502
rthumb 8.48253 -21.3037
lclavicle 9.36773e-015 3.97569e-015
lhumerus 56.6352 9.50858 48.9236
lradius 99.4137
lwrist -17.4423
lhand -47.2357 20.3424
lfingers 7.12502
lthumb -19.9339 49.34
rfemur -7.82396 8.732 13.8781
rtibia 26.3408
rfoot -18.1127 -2.79594
rtoes 3.98924
lfemur 3.274 -2.05954 -23.1622
ltibia 8.55052
lfoot -10.1006 6.30719
ltoes -12.9337
249
root -0.132023 17.9345 -0.410739 2.78208 -10.4208 2.45111
lowerback -0.999808 -1.74689 -4.55869
upperback -1.83569 -2.30302 3.05114
thorax -1.02702 -1.08242 5.71324
lowerneck -33.2656 -0.884771 -8.3048
upperneck 2.4754 1.2208 6.78507
head 5.60789 1.07594 3.74989
rclavicle -9.00743e-015 1.11319e-014
rhumerus -33.2536 -1.05685 -79.6448
rradius 29.7161
rwrist 20.4991
rhand -17.9035 8.52944
rfingers 7.12502
rthumb 8.3635 -21.285
lclavicle -9.00743e-015 1.11319e-014
lhumerus 56.648 9.51746 48.9266
lradius 99.3658
lwrist -17.5474
lhand -47.4291 20.3223
lfingers 7.12502
lthumb -20.1197 49.3005
rfemur -7.81214 8.75285 13.8661
rtibia 26.3677
rfoot -18.1954 -2.74015
rtoes 4.34803
lfemur 3.29139 -2.0857 -23.1684
ltibia 8.48446
lfoot -10.0726 6.31328
ltoes -12.5085
250
root -0.132908 17.9334 -0.409957 2.77936 -10.4287 2.51006
lowerback -0.984364 -1.75253 -4.62093
upperback -1.84611 -2.31118 3.03789
thorax -1.04367 -1.08508 5.73553
lowerneck -33.3325 -0.887053 -8.26961
upperneck 2.46029 1.21254 6.75448
head 5.61187 1.0704 3.73358
rclavicle -2.09345e-014 -1.59028e-015
rhumerus -33.25 -0.934438 -79.6575
rradius 29.6366
rwrist 20.3819
rhand -18.0393 8.40528
rfingers 7.12502
rthumb 8.2324 -21.4143
lclavicle -2.09345e-014 -1.59028e-015
lhumerus 56.6737 9.59261 48.913
lradius 99.3512
lwrist -17.5512
lhand -47.5398 20.409
lfingers 7.12502
lthumb -20.2262 49.3759
rfemur -7.83538 8.72877 13.7977
rtibia 26.4033
rfoot -18.2237 -2.65903
rtoes 4.12566
lfemur 3.29296 -2.08042 -23.2295
ltibia 8.42338
lfoot -10.0321 6.31747
ltoes -12.3803
251
root -0.133799 17.933 -0.408618 2.77725 -10.4136 2.53877
lowerback -0.978764 -1.75477 -4.64976
upperback -1.84416 -2.31446 3.01685
thorax -1.04415 -1.08651 5.73001
lowerneck -33.4043 -0.900727 -8.2523
upperneck 2.43555 1.1904 6.78266
head 5.6145 1.06376 3.7385
rclavicle -6.07908e-014 -1.59028e-015
rhumerus -33.2192 -0.822471 -79.7064
rradius 29.5714
rwrist 20.1982
rhand -18.0685 8.31889
rfingers 7.12502
rthumb 8.20423 -21.5018
lclavicle -6.07908e-014 -1.59028e-015
lhumerus 56.759 9.65588 48.8633
lradius 99.3283
lwrist -17.5911
lhand -47.487 20.4419
lfingers 7.12502
lthumb -20.1754 49.4142
rfemur -7.84389 8.71816 13.7696
rtibia 26.4384
rfoot -18.2419 -2.67746
rtoes 4.00771
lfemur 3.31447 -2.09651 -23.259
ltibia 8.37155
lfoot -9.96858 6.32785
ltoes -12.5503
252
root -0.134688 17.9326 -0.407875 2.7717 -10.3885 2.54339
lowerback -0.950338 -1.76219 -4.66424
upperback -1.8602 -2.32549 3.01618
thorax -1.07472 -1.09055 5.73882
lowerneck -33.3803 -0.931404 -8.34706
upperneck 2.39619 1.17363 6.8984
head 5.59956 1.06531 3.79015
rclavicle 3.34952e-014 -1.19271e-014
rhumerus -33.245 -0.837369 -79.6705
rradius 29.5438
rwrist 20.1916
rhand -17.9785 8.1957
rfingers 7.12502
rthumb 8.29106 -21.6216
lclavicle 3.34952e-014 -1.19271e-014
lhumerus 56.7735 9.70554 48.823
lradius 99.3252
lwrist -17.537
lhand -47.5906 20.3764
lfingers 7.12502
lthumb -20.2749 49.3382
rfemur -7.84486 8.72175 13.7738
rtibia 26.4649
rfoot -18.2673 -2.70795
rtoes 4.00176
lfemur 3.32529 -2.12116 -23.2578
ltibia 8.36046
lfoot -9.96958 6.32851
ltoes -12.5069
253
root -0.135312 17.9318 -0.407124 2.7636 -10.3711 2.57287
lowerback -0.923971 -1.7716 -4.7046
upperback -1.86919 -2.33908 3.01651
thorax -1.09553 -1.09602 5.7632
lowerneck -33.3391 -0.935183 -8.40856
upperneck 2.29763 1.1875 6.93735
head 5.56017 1.07491 3.81298
rclavicle 2.06612e-014 -1.11319e-014
rhumerus -33.2312 -0.91807 -79.6194
rradius 29.5018
rwrist 20.2551
rhand -17.9248 7.96549
rfingers 7.12502
rthumb 8.34293 -21.8498
lclavicle 2.06612e-014 -1.11319e-014
lhumerus 56.788 9.75392 48.8136
lradius 99.2738
lwrist -17.428
lhand -47.8309 20.0364
lfingers 7.12502
lthumb -20.5059 48.9735
rfemur -7.85652 8.67718 13.7466
rtibia 26.4926
rfoot -18.2435 -2.72048
rtoes 3.75296
lfemur 3.33076 -2.13925 -23.2884
ltibia 8.35946
lfoot -9.98257 6.32834
ltoes -12.562
254
root -0.135892 17.9307 -0.405849 2.78249 -10.3905 2.57369
lowerback -0.999389 -1.76424 -4.69157
upperback -1.82914 -2.32628 3.01229
thorax -1.01414 -1.09326 5.74786
lowerneck -33.3495 -0.962514 -8.46352
upperneck 2.17096 1.17947 6.92089
head 5.51917 1.06971 3.81327
rclavicle 4.17324e-014 -7.95139e-016
rhumerus -33.1739 -0.929574 -79.6044
rradius 29.5179
rwrist 20.2359
rhand -17.9462 7.872
rfingers 7.12502
rthumb 8.32225 -21.9441
lclavicle 4.17324e-014 -7.95139e-016
lhumerus 56.8928 9.84346 48.8827
lradius 99.2198
lwrist -17.59
lhand -47.9539 20.1823
lfingers 7.12502
lthumb -20.6241 49.1066
rfemur -7.89379 8.68333 13.7426
rtibia 26.5127
rfoot -18.2079 -2.69314
rtoes 4.04071
lfemur 3.29893 -2.12051 -23.2888
ltibia 8.37708
lfoot -9.99813 6.32218
ltoes -12.5241
255
root -0.136627 17.9307 -0.405372 2.76376 -10.3999 2.60628
lowerback -0.98596 -1.7441 -4.70601
upperback -1.82144 -2.29997 2.98396
thorax -1.01784 -1.08006 5.72697
lowerneck -33.3681 -0.991072 -8.39655
upperneck 2.13911 1.13208 6.80479
head 5.51432 1.03732 3.75659
rclavicle 2.2003e-014 -3.26007e-014
rhumerus -33.1461 -1.00021 -79.5757
rradius 29.4599
rwrist 20.23
rhand -18.0615 7.97541
rfingers 7.12502
rthumb 8.21099 -21.845
lclavicle 2.2003e-014 -3.26007e-014
lhumerus 56.99 9.86496 48.9691
lradius 99.2155
lwrist -17.7848
lhand -47.8047 20.4703
lfingers 7.12502
lthumb -20.4807 49.4101
rfemur -7.88824 8.70273 13.7109
rtibia 26.5378
rfoot -18.2099 -2.73702
rtoes 4.1875
lfemur 3.30724 -2.11145 -23.3224
ltibia 8.3901
lfoot -9.99295 6.32251
ltoes -12.5571
